<svg xmlns="http://www.w3.org/2000/svg" version="1.1" xmlns:xlink="http://www.w3.org/1999/xlink" xmlns:svgjs="http://svgjs.dev/svgjs" width="2000" height="2250" viewBox="0 0 2000 2250"><g transform="matrix(1,0,0,1,0,0)"><svg viewBox="0 0 320 360" data-background-color="#121212" preserveAspectRatio="xMidYMid meet" height="2250" width="2000" xmlns="http://www.w3.org/2000/svg" xmlns:xlink="http://www.w3.org/1999/xlink"><g id="tight-bounds" transform="matrix(1,0,0,1,0,0)"><svg viewBox="0 0 320 360" height="360" width="320"><g><svg></svg></g><g><svg viewBox="0 0 320 360" height="360" width="320"><g><path d="M297.491 100.645c-12.426-21.51-112.674-79.355-137.491-79.355-24.817 0-125.028 57.845-137.491 79.355-11.591 20.02-11.591 138.726 0 158.746 12.463 21.474 112.674 79.319 137.491 79.319 24.817 0 125.064-57.845 137.491-79.355 11.591-20.02 11.591-138.69 0-158.71zM309.481 93.705c-14.461-24.998-119.469-86.295-149.481-86.295-30.012 0-135.02 61.297-149.481 86.295-14.025 24.199-14.025 148.391 0 172.59 14.461 24.998 119.469 86.295 149.481 86.295 30.012 0 135.02-61.297 149.481-86.259 14.025-24.235 14.025-148.427 0-172.626zM300.906 261.353c-12.753 22.055-115.472 81.317-140.906 81.318-25.434 0-128.153-59.298-140.906-81.354-11.881-20.529-11.881-142.178 0-162.707 12.753-22.019 115.472-81.281 140.906-81.281 25.434 0 128.153 59.298 140.906 81.318 11.881 20.529 11.881 142.178 0 162.706z" fill="#ff4a3f" fill-rule="nonzero" stroke="none" stroke-width="1" stroke-linecap="butt" stroke-linejoin="miter" stroke-miterlimit="10" stroke-dasharray="" stroke-dashoffset="0" font-family="none" font-weight="none" font-size="none" text-anchor="none" style="mix-blend-mode: normal" data-fill-palette-color="tertiary"></path></g><g transform="matrix(1,0,0,1,48.000000000000014,153.0930930930931)"><svg viewBox="0 0 223.99999999999997 53.81381381381381" height="53.81381381381381" width="223.99999999999997"><g><svg viewBox="0 0 223.99999999999997 53.81381381381381" height="53.81381381381381" width="223.99999999999997"><g><svg viewBox="0 0 223.99999999999997 53.81381381381381" height="53.81381381381381" width="223.99999999999997"><g><svg viewBox="0 0 223.99999999999997 53.81381381381381" height="53.81381381381381" width="223.99999999999997"><g id="textblocktransform"><svg viewBox="0 0 223.99999999999997 53.81381381381381" height="53.81381381381381" width="223.99999999999997" id="textblock"><g><svg viewBox="0 0 223.99999999999997 53.81381381381381" height="53.81381381381381" width="223.99999999999997"><g transform="matrix(1,0,0,1,0,0)"><svg width="223.99999999999997" viewBox="1.66 -34.35 146.33 35.160000000000004" height="53.81381381381381" data-palette-color="#ffffff"><path d="M14.84-2.15L14.84 0 1.66 0 1.66-2.15 4.64-2.34Q5.18-2.39 5.43-2.73 5.69-3.08 5.69-3.44L5.69-3.44 5.69-30.1Q5.69-30.47 5.43-30.8 5.18-31.13 4.64-31.15L4.64-31.15 1.66-31.35 1.66-33.54 14.84-33.54 14.84-31.35 11.79-31.15Q11.28-31.13 11.01-30.8 10.74-30.47 10.74-30.1L10.74-30.1 10.74-3.44Q10.74-3.08 11.01-2.73 11.28-2.39 11.79-2.34L11.79-2.34 14.84-2.15ZM40.6-9.4L40.6-9.4Q40.6-6.88 39.24-4.54 37.89-2.2 34.97-0.7 32.05 0.81 27.34 0.81L27.34 0.81Q24.66 0.81 22.65 0.34 20.65-0.12 19.55-0.59 18.45-1.05 18.45-1.05L18.45-1.05 18.45-9.91 21.6-9.91 22.26-4.25Q22.31-3.96 22.58-3.61 22.85-3.27 23.09-3.15L23.09-3.15Q23.22-3.13 24.52-2.56 25.83-2 28.15-2L28.15-2Q31.35-2 33.42-3.56 35.5-5.13 35.5-7.91L35.5-7.91Q35.5-9.42 34.65-10.56 33.81-11.69 32.47-12.57 31.13-13.45 29.6-14.17 28.07-14.89 26.71-15.55L26.71-15.55Q24.66-16.53 22.9-17.64 21.14-18.75 20.07-20.39 18.99-22.02 18.99-24.56L18.99-24.56Q18.99-27.54 20.51-29.74 22.02-31.93 24.63-33.14 27.24-34.35 30.54-34.35L30.54-34.35Q33.23-34.35 35.28-33.83 37.33-33.3 38.91-32.79L38.91-32.79 39.35-32.64 39.35-24.85 36.5-24.85 35.74-29.64Q35.69-29.98 35.43-30.14 35.18-30.3 34.96-30.52L34.96-30.52Q34.76-30.66 33.75-31.15 32.74-31.64 30.61-31.64L30.61-31.64Q27.61-31.64 25.88-29.97 24.14-28.3 24.14-25.76L24.14-25.76Q24.14-23.46 25.94-21.95 27.73-20.43 31.1-19.14L31.1-19.14Q35.64-17.43 38.12-15.3 40.6-13.16 40.6-9.4ZM78.1-2.15L78.1 0 65.45 0 65.45-2.15 68.31-2.34Q68.82-2.39 69.09-2.73 69.36-3.08 69.36-3.44L69.36-3.44 69.36-16.36 52.9-16.36 52.9-3.44Q52.9-3.08 53.16-2.73 53.41-2.39 53.95-2.34L53.95-2.34 56.81-2.15 56.81 0 44.16 0 44.16-2.15 46.75-2.34Q47.29-2.39 47.57-2.73 47.85-3.08 47.85-3.44L47.85-3.44 47.85-30.1Q47.85-30.47 47.57-30.8 47.29-31.13 46.75-31.15L46.75-31.15 44.16-31.35 44.16-33.54 56.81-33.54 56.81-31.35 53.95-31.15Q53.41-31.13 53.16-30.8 52.9-30.47 52.9-30.1L52.9-30.1 52.9-18.85 69.36-18.85 69.36-30.1Q69.36-30.47 69.09-30.8 68.82-31.13 68.31-31.15L68.31-31.15 65.45-31.35 65.45-33.54 78.1-33.54 78.1-31.35 75.51-31.15Q74.97-31.13 74.69-30.8 74.41-30.47 74.41-30.1L74.41-30.1 74.41-3.44Q74.41-3.08 74.69-2.73 74.97-2.39 75.51-2.34L75.51-2.34 78.1-2.15ZM113.15-2.15L113.15 0 101.26 0 101.26-2.15 104.14-2.39Q104.34-2.39 104.51-2.65 104.68-2.91 104.68-3.13L104.68-3.13Q104.68-3.22 104.66-3.25L104.66-3.25 101.21-12.4 89.67-12.4 86.35-3.39Q86.32-3.34 86.32-3.25L86.32-3.25Q86.32-2.95 86.58-2.67 86.83-2.39 87.05-2.39L87.05-2.39 90.01-2.15 90.01 0 79.95 0 79.95-2.15 82.85-2.76 94.5-34.35 98.26-34.35 109.86-3.49Q110.05-2.98 110.2-2.81 110.34-2.64 110.91-2.54L110.91-2.54 113.15-2.15ZM90.54-14.79L100.31-14.79 95.4-27.91 90.54-14.79ZM147.99-33.54L147.99-31.4 145.2-31.2Q144.67-31.18 144.41-30.82 144.16-30.47 144.16-30.1L144.16-30.1 144.16 0 140.25 0 121.65-28 121.65-3.44Q121.65-3.08 121.9-2.73 122.16-2.39 122.7-2.34L122.7-2.34 125.55-2.15 125.55 0 114.74 0 114.74-2.15 117.59-2.34Q118.13-2.39 118.41-2.73 118.69-3.08 118.69-3.44L118.69-3.44 118.69-30.1Q118.69-30.47 118.41-30.82 118.13-31.18 117.59-31.2L117.59-31.2 114.64-31.4 114.64-33.54 124.55-33.54 124.55-32.3 141.2-7.15 141.2-30.1Q141.2-30.47 140.93-30.82 140.66-31.18 140.15-31.2L140.15-31.2 137.29-31.4 137.29-33.54 147.99-33.54Z" opacity="1" transform="matrix(1,0,0,1,0,0)" fill="#ffffff" class="wordmark-text-0" data-fill-palette-color="quaternary" id="text-0"></path></svg></g></svg></g></svg></g></svg></g><g></g></svg></g></svg></g></svg></g></svg></g><defs></defs></svg><rect width="320" height="360" fill="none" stroke="none" visibility="hidden"></rect></g></svg></g></svg>